<svg width="40" height="40" viewBox="0 0 40 40" fill="none" xmlns="http://www.w3.org/2000/svg">
<g clip-path="url(#clip0_3_22)">
<path d="M35.1496 -0.0393842C34.0683 -0.0590242 31.5564 0.391696 27.3626 3.83806C25.0769 3.13666 22.6449 2.79054 20.2088 2.79054C17.5283 2.79054 14.8196 3.20846 12.2935 4.0593C6.27234 -0.984184 3.61467 0.0493758 3.61467 0.0493758C1.87963 5.3767 2.95181 9.3209 3.27768 10.3005C1.2384 13.0028 -0.00653076 16.4535 -0.00653076 20.6828C-0.00653076 23.8757 0.28944 26.7395 1.01254 29.2289C1.05264 29.4211 1.03964 29.3782 1.10721 29.5427C1.26652 30.0581 1.44364 30.5583 1.64273 31.0414C1.71095 31.2153 1.77304 31.3439 1.77304 31.3439C3.80574 35.9962 7.81286 39.0015 14.9425 39.9451L25.7256 39.9601C33.329 39.0343 36.9776 36.0201 38.6588 31.3364L38.7657 31.0314C38.925 30.5583 39.0639 30.066 39.4438 28.4089C39.8236 26.7519 39.9935 23.8821 39.9935 20.6815C39.9935 16.0913 38.5894 12.4185 36.3092 9.62418C36.7077 8.04498 37.24 4.53786 35.7778 0.0480958C35.7778 0.0480958 35.5728 -0.0317042 35.1497 -0.0394242L35.1496 -0.0393842ZM26.652 16.8053C28.4077 16.8007 29.9116 17.1708 31.0408 18.6253V18.6265C32.4537 20.4482 33.2805 22.6475 33.2805 25.0177C33.2805 36.084 27.4838 36.385 20.334 36.385C13.183 36.385 7.38755 34.8515 7.38755 25.0177C7.38755 22.6632 8.20229 20.477 9.59774 18.6628C11.9255 15.6392 15.8646 17.2403 20.3341 17.2403C22.6283 17.2399 24.783 16.8103 26.6521 16.8053L26.652 16.8053ZM13.3339 20.0641C11.8462 20.0641 10.6401 22.5337 10.6401 25.5815C10.6401 28.6297 11.8461 31.1002 13.3339 31.1002C14.8216 31.1002 16.0277 28.6297 16.0277 25.5815C16.0277 22.5341 14.8217 20.0663 13.3339 20.0641ZM27.7871 20.0641C26.2994 20.0641 25.0933 22.5337 25.0933 25.5815C25.0933 28.6297 26.2993 31.1002 27.7871 31.1002C29.2748 31.1002 30.4808 28.6297 30.4808 25.5815C30.4808 22.5341 29.2748 20.0663 27.7871 20.0641Z" fill="black"/>
</g>
<defs>
<clipPath id="clip0_3_22">
<rect width="40" height="40" fill="white"/>
</clipPath>
</defs>
</svg>
